# xmcd CD database file
#
# Track frame offsets:
#	150
#	13913
#	26438
#	45169
#
# Disc length: 785 seconds
#
# Revision: 0
# Processed by: cddbd v1.5.1PL0 Copyright (c) Steve Scherf et al.
# Submitted via: CDex 1.51
#
DISCID=22030f04
DTITLE=Old Fashion - Old Fashion
DYEAR=1900
DGENRE=Rock
TTITLE0=Swingin'Dog
TTITLE1=Motown the Street
TTITLE2=恋心
TTITLE3=Lips
EXTD=
EXTT0=
EXTT1=
EXTT2=
EXTT3=
PLAYORDER=
